/* XPM */
static char *result[] = {
/* columns rows colors chars-per-pixel */
"64 64 166 2 ",
"   c #14090A",
".  c gray10",
"X  c #211718",
"o  c #2D1B1C",
"O  c #3B1014",
"+  c #242425",
"@  c #27272A",
"#  c #2D2D2D",
"$  c #332F31",
"%  c #333434",
"&  c #3C3C3C",
"*  c #411115",
"=  c #4B161B",
"-  c #44181C",
";  c #521318",
":  c #5C1319",
">  c #56191F",
",  c #5E181D",
"<  c #541217",
"1  c #63141A",
"2  c #6F131A",
"3  c #7B171E",
"4  c #411D21",
"5  c #511C20",
"6  c #5E1F25",
"7  c #6D1F25",
"8  c #701C22",
"9  c #462225",
"0  c #4E2225",
"q  c #522629",
"w  c #442E31",
"e  c #562C30",
"r  c #58373A",
"t  c #503B3D",
"y  c #5F3D3F",
"u  c #68272C",
"i  c #752127",
"p  c #70262C",
"a  c #7D242B",
"s  c #463F40",
"d  c #4C3C41",
"f  c #434343",
"g  c #4C4647",
"h  c #47474A",
"j  c #47484A",
"k  c #4C4C4D",
"l  c #54484D",
"z  c #5B4243",
"x  c #4E4E51",
"c  c #4F5053",
"v  c #535354",
"b  c #57575B",
"n  c #5B5B5D",
"m  c #645254",
"M  c #685758",
"N  c #635E5F",
"B  c #735D5F",
"V  c #5E5E62",
"C  c #675C63",
"Z  c #725F61",
"A  c #646464",
"S  c #65656B",
"D  c #6A666B",
"F  c #6B6A6B",
"G  c #696464",
"H  c #716C6C",
"J  c #716464",
"K  c #6D6D73",
"L  c #737374",
"P  c #74737B",
"I  c #7C7C7D",
"U  c #80171F",
"Y  c #8B1D25",
"T  c #941C25",
"R  c #9E1F29",
"E  c #A01F29",
"W  c #83242B",
"Q  c #8C242B",
"!  c #94262E",
"~  c #9B262F",
"^  c #952830",
"/  c #9A2830",
"(  c #A4222C",
")  c #AA242D",
"_  c #A52A33",
"`  c #AC2B34",
"'  c #B62732",
"]  c #B32C36",
"[  c #BC2D37",
"{  c #BA2E38",
"}  c #C32E39",
"|  c #CB323D",
" . c #C5313C",
".. c #D53541",
"X. c #DA3743",
"o. c #DC3843",
"O. c #847A7A",
"+. c #838383",
"@. c #8B8786",
"#. c #86868C",
"$. c #8C8C8C",
"%. c #8D908F",
"&. c #8E8E95",
"*. c #8E8E98",
"=. c #939393",
"-. c #93939C",
";. c #9C9C9C",
":. c #A59496",
">. c #9D9FA8",
",. c #A3A3A3",
"<. c #A0A1AC",
"1. c #ABABAB",
"2. c #A8A3A3",
"3. c #B3ABAC",
"4. c #AAABB5",
"5. c #B0AFBA",
"6. c #AFB0B9",
"7. c #B3B3B3",
"8. c #B3B3BC",
"9. c #BBBBBB",
"0. c #BBB3B3",
"q. c #C0BFBF",
"w. c #D0B4B7",
"e. c #B7B6C2",
"r. c #B9BAC5",
"t. c #BDBFCA",
"y. c #BFC0C0",
"u. c #C4C4C4",
"i. c #C5C5CB",
"p. c #CBCBCC",
"a. c #C5C6D3",
"s. c #C8C9D5",
"d. c #CCCCD9",
"f. c #D3D3D3",
"g. c #D1D2DD",
"h. c #DBDBDB",
"j. c #FEC5CC",
"k. c #FEC8CF",
"l. c #FECBD2",
"z. c #FED1D6",
"x. c #FED7DD",
"c. c #FED9DE",
"v. c #D6D6E2",
"b. c #D8D7E3",
"n. c #D7D8E5",
"m. c #DADAE6",
"M. c #DFDFEC",
"N. c #E4E4E5",
"B. c #E1E1EF",
"V. c #ECECEC",
"C. c #E9E5E4",
"Z. c #FFE2E5",
"A. c #FFE6E9",
"S. c #FFECEE",
"D. c #E5E5F4",
"F. c #E8E7F7",
"G. c #EAEAF6",
"H. c #ECEBF9",
"J. c #FEEFF0",
"K. c #F4F4F3",
"L. c #FEF2F3",
"P. c #FFF8F7",
"I. c #F3F4FB",
"U. c #F8F7F8",
"Y. c #FFFFFF",
"T. c None",
/* pixels */
"T.T.T.T.T.T.T.T.T.T.T.T.T.T.T.T.T.T.T.T.T.T.T.T.T.T.T.T.T.T.T.T.T.T.T.T.T.T.T.T.T.T.T.T.T.T.T.T.T.T.T.T.T.T.T.T.T.T.T.T.T.T.T.T.",
"T.T.T.T.T.T.T.T.T.T.T.T.T.T.T.T.T.T.T.T.T.T.T.T.T.T.T.T.T.T.T.T.T.T.T.T.T.T.T.T.T.T.T.T.T.T.T.T.T.T.T.T.T.T.T.T.T.T.T.T.T.T.T.T.",
"T.T.T.T.T.T.T.T.T.T.T.T.T.T.T.T.T.T.T.T.T.T.T.T.T.T.T.T.T.T.T.T.T.T.T.T.T.T.T.T.T.T.T.T.T.T.T.T.T.T.T.T.T.T.T.T.T.T.T.T.T.T.T.T.",
"T.T.T.T.T.T.T.T.T.T.T.T.T.T.T.T.T.T.T.T.T.T.T.T.T.T.T.T.T.T.T.T.T.T.T.T.T.T.T.T.T.T.T.T.T.T.T.T.T.T.T.T.T.T.T.T.T.T.T.T.T.T.T.T.",
"T.T.T.T.T.T.T.T.T.T.T.T.T.T.T.T.T.T.T.T.T.T.T.T.T.T.T.T.T.T.T.T.T.T.T.T.T.T.T.T.T.T.T.T.T.T.T.T.T.T.T.T.T.T.T.T.T.T.T.T.T.T.T.T.",
"T.T.T.T.T.T.T.T.T.T.T.T.T.T.T.T.T.T.T.T.T.T.T.T.T.T.T.T.T.T.T.T.T.T.T.T.T.T.T.T.T.T.T.T.T.T.T.T.T.T.T.T.T.T.T.T.T.T.T.T.T.T.T.T.",
"T.T.T.T.T.T.T.T.T.T.T.T.T.T.T.T.T.T.T.T.T.T.T.T.T.T.T.T.T.T.T.T.T.T.T.T.T.T.T.T.T.T.T.T.T.T.T.T.T.T.T.T.T.T.T.T.T.T.T.T.T.T.T.T.",
"T.T.T.T.T.T.T.T.T.T.T.T.T.T.T.T.T.T.T.T.T.T.T.T.T.T.T.T.T.T.T.T.T.T.T.T.T.T.T.T.T.T.T.T.T.T.T.T.T.T.T.T.T.T.T.T.T.T.T.T.T.T.T.T.",
"T.T.T.T.T.T.T.T.T.T.T.T.T.T.T.T.T.T.T.T.T.T.T.T.T.T.T.T.T.T.T.T.T.T.T.T.T.T.T.T.T.T.T.T.T.T.T.T.T.T.T.T.T.T.T.T.T.T.T.T.T.T.T.T.",
"T.T.T.T.T.T.T.T.T.T.T.T.T.T.T.T.T.T.T.T.T.T.T.T.T.T.T.T.T.T.T.T.T.T.T.T.T.T.T.T.T.T.T.T.T.T.T.T.T.T.T.T.T.T.T.T.T.T.T.T.T.T.T.T.",
"T.T.T.T.T.T.T.T.T.T.T.T.T.T.T.T.T.T.T.T.T.T.T.T.T.T.T.T.T.T.T.T.T.T.T.T.T.T.T.T.T.T.T.T.T.T.T.T.T.T.T.T.T.T.T.T.T.T.T.T.T.T.T.T.",
"T.T.T.T.T.T.T.T.T.T.T.T.T.T.T.T.T.T.T.T.T.T.T.T.T.T.T.T.T.T.T.T.T.T.T.T.T.T.T.T.T.T.T.T.T.T.T.T.T.T.T.T.T.T.T.T.T.T.T.T.T.T.T.T.",
"T.T.T.T.T.T.T.T.T.T.T.T.T.T.T.T.T.T.T.T.T.T.T.T.T.T.T.T.T.T.T.T.T.T.T.T.T.T.T.T.T.T.T.T.T.T.T.T.T.T.T.T.T.T.T.T.T.T.T.T.T.T.T.T.",
"T.T.T.T.T.T.T.T.T.T.T.T.T.T.T.T.T.T.T.T.T.T.T.T.T.T.A D F F n ;.Y.T.T.T.T.T.T.T.T.T.T.T.T.T.T.T.T.T.T.T.T.T.T.T.T.T.T.T.T.T.T.T.",
"T.T.T.T.T.T.T.T.T.T.T.T.T.T.T.T.T.T.T.T.T.T.T.+.D +.9.h.K.K.f.P $.;.O.J m m G %.T.T.T.T.T.T.T.T.T.T.T.T.T.T.T.T.T.T.T.T.T.T.T.T.",
"T.T.T.T.T.T.T.T.T.T.T.T.T.T.T.T.T.T.T.T.T.=.A $.h.Y.Y.Y.Y.Y.I.r.0 / ) ] [ ` ^ p z L T.T.T.T.T.T.T.T.T.T.T.T.T.T.T.T.T.T.T.T.T.T.",
"T.T.T.T.T.T.T.T.T.T.T.T.T.T.T.T.T.T.T.T.I P f.Y.Y.Y.Y.Y.Y.H.D.P W o.X.X.X.o.X.X.{ a t T.T.T.T.T.T.T.T.T.T.T.T.T.T.T.T.T.T.T.T.T.",
"T.T.T.T.T.T.T.T.T.T.T.T.T.T.T.T.T.T.7.F ,.K.Y.Y.Y.Y.Y.U.I.n.P = ( X.X.X.X...X...o.o._ y T.T.T.T.T.T.T.T.T.T.T.T.T.T.T.T.T.T.T.T.",
"T.T.T.T.T.T.T.T.T.T.T.T.T.T.T.T.T.,.H p.Y.Y.Y.Y.Y.Y.I.H.e.h   * : ! ` ` ..X... .` / ! : X n T.T.T.T.T.T.T.T.T.T.T.T.T.T.T.T.T.T.",
"T.T.T.T.T.T.T.T.T.T.T.T.T.T.T.T.T.L h.Y.Y.Y.Y.Y.U.I.M.&.v &.;.1.,.H J M a Q u r m H +.%.;.$.V l T.T.T.T.T.T.T.T.T.T.T.T.T.T.T.T.",
"T.T.T.T.T.T.T.T.T.T.T.T.T.T.T.3.D h.Y.Y.Y.Y.Y.I.H.r.V K d.U.Y.Y.Y.V.9.D g @.r.N.U.Y.Y.Y.Y.Y.K.=.n T.T.T.T.T.T.T.T.T.T.T.T.T.T.T.",
"T.T.T.T.T.T.T.T.T.T.T.T.T.T.N.I f.Y.Y.Y.Y.U.H.g.#.V 4.D.I.Y.Y.K.1.F L 9.V.Y.Y.Y.Y.Y.Y.Y.Y.Y.Y.G.K ;.=.T.T.T.T.T.T.T.T.T.T.T.T.T.",
"T.T.T.T.T.T.T.T.T.T.T.T.T.T.;.;.Y.Y.Y.U.N.8.K @ + S P K I ;.7.L +.f.Y.Y.Y.Y.Y.Y.Y.Y.Y.Y.Y.Y.I.H.P & #.n & T.T.T.T.T.T.T.T.T.T.T.",
"T.T.T.T.T.T.T.T.T.T.T.T.T.A k N.Y.Y.Y.p.f % v I ;.,.,.,.>.I I f.Y.Y.Y.Y.Y.Y.Y.Y.Y.Y.Y.U.U.G.F.v.& +.Y.g.F v T.T.T.T.T.T.T.T.T.T.",
"T.T.T.T.T.T.T.T.T.T.T.T.%.c I Y.Y.Y.Y.V.u.N.Y.Y.Y.Y.Y.Y.Y.Y.Y.Y.Y.Y.Y.Y.Y.I.I.I.H.H.H.H.G.G.v.P > J I.U.8.b T.T.T.T.T.T.T.T.T.T.",
"T.T.T.T.T.T.T.T.T.T.T.T.j % 9.Y.Y.Y.Y.Y.Y.Y.Y.Y.Y.Y.Y.Y.Y.Y.Y.Y.Y.U.N.r.6.8.a.v.m.v.g.g.t.&.t 7 | p 4.Y.r.V T.T.T.T.T.T.T.T.T.T.",
"T.T.T.T.T.T.T.T.T.T.T.T.j 1.Y.Y.Y.Y.Y.Y.Y.Y.Y.Y.Y.Y.Y.Y.Y.Y.Y.Y.Y.p.k h S S b b n n b % 4 < Y ..o._ C F.d.N T.T.T.T.T.T.T.T.T.T.",
"T.T.T.T.T.T.T.T.T.T.T.% ;.Y.Y.Y.Y.Y.Y.Y.Y.Y.Y.Y.Y.Y.Y.Y.Y.Y.Y.Y.Y.G.-.-.H.F.M.v.g.v.v.D : E ) | X.| e y.8.D T.T.T.T.T.T.T.T.T.T.",
"T.T.T.T.T.T.T.T.T.T.T.n V.Y.Y.Y.Y.Y.Y.Y.Y.Y.Y.Y.Y.Y.Y.Y.Y.Y.Y.Y.Y.Y.i.A a.Y.U.U.Y.U.H.r.4 T R } X.X.7 j n +.T.T.T.T.T.T.T.T.T.T.",
"T.T.T.T.T.T.T.T.T.T.=.$.Y.Y.Y.Y.Y.Y.Y.Y.Y.Y.Y.Y.Y.Y.Y.Y.Y.Y.Y.Y.Y.Y.Y.7.n h.Y.Y.Y.Y.I.D.N 1 R [ X.X.Q n T.T.T.T.T.T.T.T.T.T.T.T.",
"T.T.T.T.T.T.T.T.T.T.I 7.Y.Y.Y.Y.Y.Y.Y.Y.Y.Y.Y.Y.Y.Y.Y.Y.Y.Y.Y.Y.Y.Y.Y.Y.$.=.Y.Y.Y.Y.Y.H.&.< ( | X.X.~ g T.T.T.T.T.T.T.T.T.T.T.T.",
"T.T.T.T.T.T.T.T.T.T.L 9.Y.Y.Y.Y.Y.Y.Y.Y.Y.Y.Y.Y.Y.Y.Y.Y.Y.Y.Y.Y.Y.Y.Y.Y.p.n V.Y.Y.Y.Y.H.#.1 E  .X.o.! N T.T.T.T.T.T.T.T.T.T.T.T.",
"T.T.T.T.T.T.T.T.T.T.F 9.Y.Y.Y.Y.Y.Y.Y.Y.Y.Y.Y.Y.Y.Y.Y.Y.Y.Y.Y.Y.Y.Y.Y.Y.Y.L 9.Y.Y.Y.Y.H.<.= R } X.X.W v T.T.T.T.T.T.T.T.T.T.T.T.",
"T.T.T.T.T.T.T.T.T.T.F 7.Y.Y.Y.Y.Y.Y.Y.Y.Y.Y.Y.Y.Y.Y.Y.Y.Y.Y.Y.Y.Y.Y.Y.Y.Y.=.=.Y.Y.Y.H.G.g.w T } X.X.i T.T.T.T.T.T.T.T.T.T.T.T.T.",
"T.T.T.T.T.T.T.T.T.T.+.=.Y.Y.Y.Y.Y.Y.Y.Y.Y.Y.Y.Y.Y.Y.Y.Y.Y.Y.Y.Y.Y.Y.Y.Y.Y.p.A V.Y.U.G.F.D.l U ' ....7 T.T.T.T.T.T.T.T.T.T.T.T.T.",
"T.T.T.T.T.T.T.T.T.T.1.L Y.Y.Y.Y.Y.Y.Y.P.L.J.L.L.u.=.$.,.U.Y.Y.Y.Y.Y.Y.Y.Y.K.A f.Y.I.G.F.F.D 2 ) ..| 9 T.T.T.T.T.T.T.T.T.T.T.T.T.",
"T.T.T.T.T.T.T.T.T.T.f.A K.U.9.=.1.U.J.Z.c.c.c.c.w.:.2.q.U.Y.Y.Y.Y.Y.Y.Y.Y.K.n f.Y.H.F.F.H.#.1 ) | ] o T.T.T.T.T.T.T.T.T.T.T.T.T.",
"T.T.T.T.T.T.T.T.T.T.h.V C.U.u.p.N.S.c.l.j.j.j.j.l.c.L.Y.Y.Y.Y.Y.Y.Y.Y.Y.Y.Y.%.$.Y.H.F.F.F.4.- ) o.W @ T.T.T.T.T.T.T.T.T.T.T.T.T.",
"T.T.T.T.T.T.T.T.T.T.7.A K.Y.Y.Y.P.Z.k.j.j.j.j.j.k.c.S.Y.Y.Y.Y.Y.Y.Y.Y.K.U.Y.9.L I.F.F.F.F.s.9 ) | 5 T.T.T.T.T.T.T.T.T.T.T.T.T.T.",
"T.T.T.T.T.T.T.T.T.T.H +.Y.Y.Y.Y.U.Z.l.k.k.l.l.z.c.A.P.Y.Y.Y.Y.Y.Y.Y.Y.%.u.Y.9.F F.F.F.F.F.m.d 8 ~ w T.T.T.T.T.T.T.T.T.T.T.T.T.T.",
"T.T.T.T.T.T.T.T.T.T.F ,.Y.Y.Y.Y.P.J.Z.Z.Z.Z.A.S.L.N.K.Y.Y.Y.Y.Y.Y.Y.Y.F 7.Y.h.b n.G.F.F.F.F.>.= i L T.T.T.T.T.T.T.T.T.T.T.T.T.T.",
"T.T.T.T.T.T.T.T.T.T.L 7.Y.Y.Y.Y.Y.K.3.3.3.0.@.@.H A h.Y.Y.Y.Y.Y.Y.Y.V.n g.Y.h.V M.F.F.F.F.H.>.O q ,.T.T.T.T.T.T.T.T.T.T.T.T.T.T.",
"T.T.T.T.T.T.T.T.T.T.P 7.Y.Y.Y.Y.Y.K.+.%.#.+.1.1.u.f.Y.Y.Y.Y.Y.Y.Y.Y.p.V G.Y.N.n d.F.F.F.F.D.b s F T.T.T.T.T.T.T.T.T.T.T.T.T.T.T.",
"T.T.T.T.T.T.T.T.T.T.H 1.Y.Y.Y.Y.Y.Y.U.Y.Y.Y.Y.Y.Y.Y.Y.Y.Y.Y.Y.Y.Y.Y.P *.I.Y.U.D s.H.F.F.F.F.P S T.T.T.T.T.T.T.T.T.T.T.T.T.T.T.T.",
"T.T.T.T.T.T.T.T.T.T.=.F U.Y.Y.Y.Y.Y.Y.Y.Y.Y.Y.Y.Y.Y.Y.Y.Y.Y.Y.Y.Y.9.v n.U.Y.$.# >.m.H.H.H.e.v T.T.T.T.T.T.T.T.T.T.T.T.T.T.T.T.T.",
"T.T.T.T.T.T.T.T.T.T.T.A L f.U.Y.Y.Y.Y.Y.Y.Y.Y.Y.Y.Y.Y.Y.Y.Y.Y.K.9.k 8.I.U.$.k +.% x &.4.P f +.T.T.T.T.T.T.T.T.T.T.T.T.T.T.T.T.T.",
"T.T.T.T.T.T.T.T.T.T.T.T.$ f A ,.u.9.7.1.;.=.$.+.%.:.;.;.=.+.G b v 6.I.N.I f T.T.T.T.S k f T.T.T.T.T.T.T.T.T.T.T.T.T.T.T.T.T.T.T.",
"T.T.T.T.T.T.T.T.T.T.T.T.T.T.n L A j % V h N k n v f & & % j c u.G.U.7.v f T.T.T.T.T.T.T.T.T.T.T.T.T.T.T.T.T.T.T.T.T.T.T.T.T.T.T.",
"T.T.T.T.T.T.T.T.T.T.T.T.T.T.V I L v ;.T.T.T.T.T.T.T.T.T.T.f 1.Y.f.A # T.T.T.T.T.T.T.T.T.T.T.T.T.T.T.T.T.T.T.T.T.T.T.T.T.T.T.T.T.",
"T.T.T.T.T.T.T.T.T.T.T.T.T.T.T.T.f D T.T.T.T.T.T.T.T.T.T.T.& & ,.A # T.T.T.T.T.T.T.T.T.T.T.T.T.T.T.T.T.T.T.T.T.T.T.T.T.T.T.T.T.T.",
"T.T.T.T.T.T.T.T.T.T.T.T.T.T.T.T.T.T.T.T.T.T.T.T.T.T.T.T.T.T.F @ . T.T.T.T.T.T.T.T.T.T.T.T.T.T.T.T.T.T.T.T.T.T.T.T.T.T.T.T.T.T.T.",
"T.T.T.T.T.T.T.T.T.T.T.T.T.T.T.T.T.T.T.T.T.T.T.T.T.T.T.T.T.T.T.T.T.T.T.T.T.T.T.T.T.T.T.T.T.T.T.T.T.T.T.T.T.T.T.T.T.T.T.T.T.T.T.T.",
"T.T.T.T.T.T.T.T.T.T.T.T.T.T.T.T.T.T.T.T.T.T.T.T.T.T.T.T.T.T.T.T.T.T.T.T.T.T.T.T.T.T.T.T.T.T.T.T.T.T.T.T.T.T.T.T.T.T.T.T.T.T.T.T.",
"T.T.T.T.T.T.T.T.T.T.T.T.T.T.T.T.T.T.T.T.T.T.T.T.T.T.T.T.T.T.T.T.T.T.T.T.T.T.T.T.T.T.T.T.T.T.T.T.T.T.T.T.T.T.T.T.T.T.T.T.T.T.T.T.",
"T.T.T.T.T.T.T.T.T.T.T.T.T.T.T.T.T.T.T.T.T.T.T.T.T.T.T.T.T.T.T.T.T.T.T.T.T.T.T.T.T.T.T.T.T.T.T.T.T.T.T.T.T.T.T.T.T.T.T.T.T.T.T.T.",
"T.T.T.T.T.T.T.T.T.T.T.T.T.T.T.T.T.T.T.T.T.T.T.T.T.T.T.T.T.T.T.T.T.T.T.T.T.T.T.T.T.T.T.T.T.T.T.T.T.T.T.T.T.T.T.T.T.T.T.T.T.T.T.T.",
"T.T.T.T.T.T.T.T.T.T.T.T.T.T.T.T.T.T.T.T.T.T.T.T.T.T.T.T.T.T.T.T.T.T.T.T.T.T.T.T.T.T.T.T.T.T.T.T.T.T.T.T.T.T.T.T.T.T.T.T.T.T.T.T.",
"T.T.T.T.T.T.T.T.T.T.T.T.T.T.T.T.T.T.T.T.T.T.T.T.T.T.T.T.T.T.T.T.T.T.T.T.T.T.T.T.T.T.T.T.T.T.T.T.T.T.T.T.T.T.T.T.T.T.T.T.T.T.T.T.",
"T.T.T.T.T.T.T.T.T.T.T.T.T.T.T.T.T.T.T.T.T.T.T.T.T.T.T.T.T.T.T.T.T.T.T.T.T.T.T.T.T.T.T.T.T.T.T.T.T.T.T.T.T.T.T.T.T.T.T.T.T.T.T.T.",
"T.T.T.T.T.T.T.T.T.T.T.T.T.T.T.T.T.T.T.T.T.T.T.T.T.T.T.T.T.T.T.T.T.T.T.T.T.T.T.T.T.T.T.T.T.T.T.T.T.T.T.T.T.T.T.T.T.T.T.T.T.T.T.T.",
"T.T.T.T.T.T.T.T.T.T.T.T.T.T.T.T.T.T.T.T.T.T.T.T.T.T.T.T.T.T.T.T.T.T.T.T.T.T.T.T.T.T.T.T.T.T.T.T.T.T.T.T.T.T.T.T.T.T.T.T.T.T.T.T.",
"T.T.T.T.T.T.T.T.T.T.T.T.T.T.T.T.T.T.T.T.T.T.T.T.T.T.T.T.T.T.T.T.T.T.T.T.T.T.T.T.T.T.T.T.T.T.T.T.T.T.T.T.T.T.T.T.T.T.T.T.T.T.T.T.",
"T.T.T.T.T.T.T.T.T.T.T.T.T.T.T.T.T.T.T.T.T.T.T.T.T.T.T.T.T.T.T.T.T.T.T.T.T.T.T.T.T.T.T.T.T.T.T.T.T.T.T.T.T.T.T.T.T.T.T.T.T.T.T.T.",
"T.T.T.T.T.T.T.T.T.T.T.T.T.T.T.T.T.T.T.T.T.T.T.T.T.T.T.T.T.T.T.T.T.T.T.T.T.T.T.T.T.T.T.T.T.T.T.T.T.T.T.T.T.T.T.T.T.T.T.T.T.T.T.T."
};
