/* XPM */
static char *result[] = {
/* columns rows colors chars-per-pixel */
"64 64 121 2 ",
"   c #0D032C",
".  c #13072E",
"X  c #15082E",
"o  c #1E0D2F",
"O  c #170A31",
"+  c #180B31",
"@  c #1F1035",
"#  c #220E2F",
"$  c #290F2F",
"%  c #2C102F",
"&  c #32132F",
"*  c #231236",
"=  c #261538",
"-  c #281639",
";  c #2C1A3B",
":  c #351630",
">  c #381630",
",  c #3C1831",
"<  c #331E3E",
"1  c #3E2033",
"2  c #35203F",
"3  c #431C31",
"4  c #4A1E32",
"5  c #4D2133",
"6  c #4A2835",
"7  c #532333",
"8  c #582634",
"9  c #532D36",
"0  c #5C3337",
"q  c #642935",
"w  c #6C2D35",
"e  c #722F36",
"r  c #6D3437",
"t  c #663938",
"y  c #6C3D39",
"u  c #753136",
"i  c #7C3337",
"p  c #7A3638",
"a  c #713F3A",
"s  c #7C433B",
"d  c #362240",
"f  c #3B2442",
"g  c #402744",
"h  c #432A46",
"j  c #452D48",
"k  c #492F49",
"l  c #4D324B",
"z  c #4F384F",
"x  c #53354D",
"c  c #56384F",
"v  c #58394F",
"b  c #543B51",
"n  c #5B3C51",
"m  c #603F53",
"M  c #5C4155",
"N  c #634155",
"B  c #694557",
"V  c #644658",
"C  c #6B4658",
"Z  c #65495A",
"A  c #6D4A5A",
"S  c #744D5C",
"D  c #784F5E",
"F  c #73515F",
"G  c #79515F",
"H  c #765562",
"J  c #7B5360",
"K  c #785864",
"L  c #7E5E68",
"P  c #833638",
"I  c #873838",
"U  c #893938",
"Y  c #933D39",
"T  c #84453B",
"R  c #864A3D",
"E  c #8A4C3D",
"W  c #9C413A",
"Q  c #8D503E",
"!  c #93533F",
"~  c #9B553F",
"^  c #A3453B",
"/  c #A9473C",
"(  c #AE493C",
")  c #B14B3C",
"_  c #B5503E",
"`  c #BA573F",
"'  c #9C5740",
"]  c #9E5A40",
"[  c #A85740",
"{  c #A25C41",
"}  c #A85F41",
"|  c #B25E41",
" . c #AD6142",
".. c #B46342",
"X. c #BA6543",
"o. c #B66843",
"O. c #BB6B44",
"+. c #865A65",
"@. c #895C66",
"#. c #855F68",
"$. c #8B5F68",
"%. c #8D626A",
"&. c #91656C",
"*. c #95696F",
"=. c #966B70",
"-. c #996D71",
";. c #9C7275",
":. c #C05D41",
">. c #C56543",
",. c #C46B44",
"<. c #CA6B44",
"1. c #C57346",
"2. c #CB7446",
"3. c #CF7947",
"4. c #D27446",
"5. c #D67947",
"6. c #D77A48",
"7. c #DA7E49",
"8. c #DC8049",
"9. c #E1834A",
"0. c None",
/* pixels */
"0.0.0.0.0.0.0.0.0.0.0.0.0.0.0.X t s y s y s s t s s t s s y y s y s y s y s t s s y y s y s s t + 0.0.0.0.0.0.0.0.0.0.0.0.0.0.0.",
"0.0.0.0.0.0.0.0.0.0.0.0.0.0.% # 2.8.8.8.8.8.8.8.8.8.8.8.8.8.8.8.8.8.8.8.8.8.8.8.8.8.8.8.8.8.9.1.6 r 0.0.0.0.0.0.0.0.0.0.0.0.0.0.",
"0.0.0.0.0.0.0.0.0.0.0.0.0.u e o 2.8.8.8.6.8.8.8.8.8.8.8.8.8.8.8.7.8.7.8.8.8.8.8.8.7.8.8.8.8.8.1.8 <.Q 0.0.0.0.0.0.0.0.0.0.0.0.0.",
"0.0.0.0.0.0.0.0.0.0.0.0.i ) u + 2.8.8.8.8.8.8.8.8.3.8.8.7.8.8.8.8.8.8.8.6.8.8.8.8.8.8.8.6.8.8.O.8 <.8.] 0.0.0.0.0.0.0.0.0.0.0.0.",
"0.0.0.0.0.0.0.0.0.0., U ( ) u # 2.8.8.8.8.8.8.8.8.8.8.7.8.8.8.7.8.8.7.7.8.8.8.8.8.8.8.8.8.8.8.1.8 2.8.8. .6 0.0.0.0.0.0.0.0.0.0.",
"0.0.0.0.0.0.0.0.0.4 Y ( ( ) u o 2.8.7.7.7.7.7.7.8.8.7.7.8.7.7.7.7.7.8.7.8.8.8.6.7.7.6.8.7.8.8.1.8 <.8.7.8.O.0 0.0.0.0.0.0.0.0.0.",
"0.0.0.0.0.0.0.0.7 W ( ( ( ) u . R >.>.>.>.>.X.>.X.X.>.>.>.>.>.>.>.>.X.>.>.>.X.>.>.>.>.>.>.>.>.T 3 ,.9.8.8.9.1.y 0.0.0.0.0.0.0.0.",
"0.0.0.0.0.0.0.q ^ ( ( ( ( W 4 o O.7.5.7.7.7.7.7.6.7.7.7.7.7.5.7.7.7.7.7.7.8.6.6.5.7.7.5.7.7.8.O., s 1.8.8.8.8.5.s 0.0.0.0.0.0.0.",
"0.0.0.0.0.0.w / ( ( ( ( Y w q # 1.8.8.8.8.8.8.8.8.8.8.8.8.8.8.8.7.8.8.8.8.8.8.8.8.7.8.8.8.8.8.1.8 | { 5.8.8.8.8.6.Q 0.0.0.0.0.0.",
"0.0.0.0.0.i ( ( ( ( ( U w / u o 2.8.8.8.8.8.8.8.8.8.8.8.8.8.8.8.8.7.8.8.8.8.8.7.8.8.8.8.8.8.8.1.8 <.7.<.4.8.7.8.8.8.] 0.0.0.0.0.",
"0.0.0., U ( ( / ( ( i u / ) u # 2.8.8.8.8.8.8.8.8.8.8.8.8.8.8.8.8.8.8.8.8.8.8.8.8.8.8.8.8.8.8.1.8 <.8.7.<.O.7.8.8.8.8. .6 0.0.0.",
"0.0.0.e ) ( ( ( / u i ( ( ( u . R <.>.>.<.>.>.>.>.>.>.<.>.>.>.>.<.>.>.>.>.>.<.>.<.>.>.>.>.>.<.E 4 <.9.8.8.{ ' 8.8.8.8.8.O.6 0.0.",
"0.0.0.u ) ( ( ^ w U ( ( ( ^ 7 o o.7.5.5.5.5.5.5.5.5.5.5.5.5.5.5.5.5.5.5.5.5.5.5.5.5.5.5.5.5.6.o., T 3.8.8.8.,.<.5.8.8.8.8.0 0.0.",
"0.0.0.u ) ( W w Y ( ( ( W r 8 o 2.8.8.8.8.8.8.8.8.8.8.8.8.8.8.8.8.7.8.8.8.8.7.8.8.8.8.8.8.8.8.1.8 [ ' 5.8.8.8.2.E 2.8.8.8.0 0.0.",
"0.0.0.u ) Y w W ) ( ( Y w ^ u # 2.8.8.8.8.8.8.8.8.8.8.8.8.8.8.8.8.8.8.8.8.8.8.8.7.8.8.8.8.8.8.1.8 2.6.<.5.7.8.8.1...5.7.8.0 0.0.",
"0.0.0.u U w ^ ( ( ( U w ^ ) e o 1.8.8.8.8.8.8.8.8.8.8.8.8.8.8.8.8.8.8.8.8.8.8.8.8.8.8.8.8.8.8.1.8 <.8.7.<.4.7.8.8.7.<.2.8.0 0.0.",
"0.0.0.4 u / ( ( ( i u / ( ( u o ! >.<.<.<.<.<.<.<.<.,.<.<.<.<.>.<.<.<.<.<.<.<.<.<.<.<.<.<.<.<.! 4 <.9.8.7.<.2.7.8.8.8.' { 0 0.0.",
"0.0.0.q ( ( ) / e P ( ( ( ( 7 o | 4.4.4.4.4.4.2.4.4.4.4.4.4.4.4.4.4.4.4.4.4.4.4.2.4.4.4.4.4.4. .> E 7.8.8.8.4.| 7.8.8.8.E o 0.0.",
"0.0.0.u ) ) ^ w U ( ) ) ^ e 5 # 2.8.8.8.8.8.8.8.8.8.8.8.8.8.8.8.8.8.8.8.7.8.8.8.8.8.8.8.8.8.8.2.8 ~ ' 6.8.8.8. .E 3.8.9.! 0.0.0.",
"0.0.0.u ) Y w Y ( ( ( Y w Y u # 2.8.8.8.8.8.8.7.8.8.8.8.8.8.8.8.8.7.8.7.8.8.8.7.7.8.7.8.8.8.8.1.8 <.2.<.7.8.8.8.O.| 5.9.! 0.0.0.",
"0.0.0.u Y w W ) ( ( Y w W ) u o ,.7.7.7.7.7.6.7.5.7.5.5.7.5.7.5.7.7.6.7.7.7.7.6.7.7.6.7.7.7.7.O.8 4.8.6.<.5.7.8.8.7...O.! 0.0.0.",
"0.0.0.5 e ^ ) ( ( U r ^ ( ( u . T >.>.>.>.>.>.>.>.>.>.>.>.>.>.>.>.>.>.>.>.>.>.>.>.>.>.>.>.>.>.T , X.9.8.6.<.4.8.8.8.3.Q t 0.0.0.",
"0.0.0.q / ( ( ( i u / ( ( W 3 o 1.8.8.7.8.7.7.7.7.7.8.7.8.7.8.8.7.7.7.7.7.7.7.7.8.7.7.7.7.7.8.1.4 s 2.7.7.7...{ 7.8.8.8.s 0.0.0.",
"0.0.4 ( ( ( / e i ( ( ( U w w o 2.8.7.8.8.8.8.7.8.8.8.8.8.8.8.8.8.8.8.7.8.8.8.8.8.8.8.7.8.8.8.1.8 >.<.4.8.8.7.] ] 8.8.9.Q 0.0.0.",
"0.0.4 ) ( ^ w I ( ( ( i u / u # 2.8.8.8.8.8.8.8.8.8.8.8.8.8.8.8.8.8.8.8.8.8.8.8.8.8.8.8.8.7.9.1.8 <.8.<.2.8.8.8.,.<.7.9.! 0.0.0.",
"0.0.4 ) W w Y ( ( / u i ( ) u # 2.8.8.8.8.8.8.8.8.8.8.8.8.8.8.8.8.8.8.7.8.8.8.8.8.8.8.8.8.8.9.2.8 2.8.8.4.<.7.8.8.4.,.6.! 0.0.0.",
"0.0.4 Y w W ( ( ^ w U ( / ) u o  .4.4.4.4.4.4.4.4.4.4.4.4.4.4.4.4.4.4.4.4.4.4.4.2.4.4.4.5.4.4.~ 8 <.8.8.7.<.! 3.8.8.6.] s 0.0.0.",
"0.0.$ w ^ ( ( W w Y ( ( ( ( w X ! <.<.<.,.<.<.<.<.<.<.<.<.<.<.<.<.<.<.<.<.<.<.<.<.<.<.,.<.<.<.! : [ 8.8.8.8.O.E 4.8.8.6.t 0.0.0.",
"0.0.0.u ) ) Y w W ( ( ( / P 3 o 3.8.8.8.8.8.8.8.8.8.8.8.8.8.8.8.8.8.8.8.7.8.8.8.8.8.8.8.8.8.8.1.7 R { 8.8.8.9.2.,.4.8.8.6.0 0.0.",
"0.0.0.e ) I w ^ ( ( ( / u P u o 2.8.8.8.8.8.8.8.8.8.8.8.8.8.8.8.8.8.8.8.7.8.8.8.8.8.8.8.8.8.8.1.8 <.]  .7.7.7.8.7.<.4.8.8.0 0.0.",
"0.0.0.u P u / ( ( ) ^ w U ) u # 2.8.8.8.8.8.8.8.8.8.8.8.8.8.8.8.8.8.8.8.8.8.8.8.8.8.8.8.8.8.8.1.8 <.8.4.<.7.8.7.8.7. .] 8.0 0.0.",
"0.0.0.3 P ( ( ( ( W w Y ( ) u X E >.>.>.>.<.>.>.>.>.>.>.>.>.,.>.>.>.>.<.>.>.>.>.>.<.>.>.>.<.<.R 5 <.8.8.4.<.7.9.8.8.8.] ! 0 0.0.",
"0.0.& P ( ( ( ) Y w W ( ( ^ 5 o X.6.6.6.6.6.6.6.5.7.5.5.5.7.5.7.5.5.5.5.5.5.5.5.5.5.5.5.5.5.6.o., T 6.8.8.7.` O.8.8.8.9.Q X 0.0.",
"0.0.4 ( ( ( ( U w ^ ) ( W e 8 # 2.9.7.7.7.8.7.8.7.7.7.9.7.7.7.7.8.8.7.8.8.8.8.8.8.8.8.8.7.8.8.1.8 ` ,.6.8.8.1.Q 2.8.8.9.! 0.0.0.",
"0.0.4 ( ( / i u / ( ( Y w W u # 2.8.7.9.7.8.8.8.7.9.7.7.7.7.7.7.8.8.8.8.8.8.8.7.8.8.8.8.8.8.8.1.7 2.7.<.5.8.8.8.2.<.8.8.! 0.0.0.",
"0.0.4 ) / u i ( ( ( U e ^ ) e o o.7.6.6.6.6.6.6.5.7.5.5.7.7.7.7.7.5.5.7.7.5.5.5.6.5.5.5.5.6.7.o.8 <.8.6.<.4.8.8.8.2.<.8.! 0.0.0.",
"0.0.4 ^ w U ) ( / P u ^ ( ) u . p _ _ _ _ _ ) ) ) | ) | ) _ _ _ _ _ _ _ ) _ _ _ _ _ _ _ _ _ _ u 5 <.8.7.7.<.} 8.8.9.o.! R 0.0.0.",
"0.0.> w Y ) ( / u i ( ) ( ) u . u i i i i u P i i i i P i i i i i i i u i i i i i u i i i i i u 7 _ 4.8.8.7.~ ! 7.8.8.O.0 0.0.0.",
"0.0.  u ) ) ^ w U ( ( ( ( ( q                                                                   o u ) 2.8.8.8.o.<.5.8.8.1.9 0.0.",
"0.0.0.u ) Y w Y ) / ( ( ( q . @ 2 2 l - k k ; x f f x - h h - c f 2 x ; < 2 l - l l - c 2 2 l -   . q ( <.7.8.8.4.<.5.8.8.0 0.0.",
"0.0.0.u Y w W ( ( ( ( / 7   + N c x N f S F g +.n c +.f m m g +.c c +.g l x N f S S f +.c x N g x +   7 ^ >.7.8.8.6.<.2.8.0 0.0.",
"0.0.0.7 u ^ ( ( / / W 3 + ; 2 l g g c h n l f k k b n z k j h M c c l f 2 g x c M M z M h g l 2 j f < + 3 W :.5.8.8.7.~  .0 0.0.",
"0.0.0.q / ( ( ( ( W & @ C +.+.+.+.+.@.%.*.@.+.+.$.=.=.=.@.+.$.=.-.*.+.+.+.+.%.-.-.-.*.*.+.+.+.+.+.+.@.B + : Y ` 5.8.8.7.E % 0.0.",
"0.0.4 ( ( ( ( ( I % - S %.@.+.@.@.@.@.@.@.@.@.@.@.@.@.+.@.@.@.+.+.@.+.@.@.@.+.+.+.+.@.+.@.@.+.+.@.@.@.@.D ; $ P _ 2.8.9.' 0.0.0.",
"0.0.4 ( ( ( ( u o . h x x l x x x l x x x x x x x x z l x x x x x x x x x x l x x x l x x x x x x x x l l h . o u _ 2.8.Q 0.0.0.",
"0.0.4 ) ) / w X g <                   .                                                                     ; h X q ( <.Q 0.0.0.",
"0.0.3 U Y 7 . l +.g x v m m N x + X v v 2 N v g .                             . h c = . c v 2 V h g x n *   2 +.x X : 5 1 0.0.0.",
"0.0.0.0.. + n +.@.h v B G G D m l X K G f G 2 .                                 . 2 l o G G f G x k m G B + 2 @.@.n + 0.0.0.0.0.",
"0.0.0.0.0.c @.+.-.c h k < h c Z f + J J ; -             .                           O O H %.2 M V V N n x @ 2 +.+.@.c 0.0.0.0.0.",
"0.0.0.0.0.n @.+.;.n G G g B +.*.n + J =.l d                                           O J ;.l %.*.*.%.%.@.2 2 +.+.$.V 0.0.0.0.0.",
"0.0.0.0.0.n @.+.;.b f h j l l x < + J ;.d *                     .         .           + D ;.d x c h g g k @ 2 +.+.$.S 0.0.0.0.0.",
"0.0.0.0.0.v @.+.;.n S +.-.@.$.%.n + J ;.j d                                           + J ;.j =.*.B x v +.< 2 @.@.$.K 0.0.0.0.0.",
"0.0.0.0.0.n @.+.;.b l c b c x v f + J ;.d =                                           + J ;.f b c x g g v = 2 @.+.$.N 0.0.0.0.0.",
"0.0.0.0.0.n @.+.;.b n %.H c 2 #.l O J ;.h ;           .                       .       + J ;.f A H %.K H A ; < +.+.%.H 0.0.0.0.0.",
"0.0.0.0.0.n @.+.;.n n A m c 2 S l + H ;.h ;                   .                       + J ;.g S A A A A S ; < @.+.&.L 0.0.0.0.0.",
"0.0.0.0.0.n @.+.;.b l A H V V v f + J ;.f -                         .                 + J ;.f k c A A x k = < @.+.&.L 0.0.0.0.0.",
"0.0.0.0.0.v @.+.;.n S +.%.+.+.K v O J ;.k 2                                           + H ;.k m J @.@.J m < < @.+.%.L 0.0.0.0.0.",
"0.0.0.0.0.v @.+.%.g g n M M x M d O J +.; @           .       .                       + J +.< h 2 j x n x @ < @.+.&.L 0.0.0.0.0.",
"0.0.0.0.0.n @.+.&.l F *.-.*.%.-.n O G L j d                                   .       + J *.j H g B +.=.@.< < @.+.&.L 0.0.0.0.0.",
"0.0.0.0.0.n @.+.*.l h h l l c x 2 O J ;.d =                           .               + J -.d j d x k x x @ < @.+.&.L 0.0.0.0.0.",
"0.0.0.0.0.n @.+.;.n C f v C -.+.x O G %.j <       .     .             .               + J J f +.=.=.J %.+.; < @.+.&.L 0.0.0.0.0.",
"0.0.0.0.0.n @.+.*.x v < x v N V h + G #.d -                                           + J $.f m N n N N m - < @.+.%.H 0.0.0.0.0.",
"0.0.0.0.0.n @.+.%.h c H H F B x h + G #.d ;                                 .         O J J 2 H H c f j N ; < +.+.@.n 0.0.0.0.0.",
"0.0.0.0.0.n @.+.&.l G $.$.$.@.A c O G D j d                   .                       + J D h $.$.A b n %.< < @.+.@.n 0.0.0.0.0."
};
