/* XPM */
static char *result[] = {
/* columns rows colors chars-per-pixel */
"64 64 118 2 ",
"   c #1E131B",
".  c #23161D",
"X  c #2D1D18",
"o  c #321F1B",
"O  c #2A1A25",
"+  c #2D1C28",
"@  c #322025",
"#  c #3D2622",
"$  c #3F2823",
"%  c #362228",
"&  c #3F293C",
"*  c #442B24",
"=  c #4F312B",
"-  c #52332B",
";  c #5C372F",
":  c #452C3A",
">  c #482E39",
",  c #4D3137",
"<  c #4C3038",
"1  c #553536",
"2  c #5E3A32",
"3  c #633E34",
"4  c #664035",
"5  c #694336",
"6  c #6E4638",
"7  c #714737",
"8  c #774B37",
"9  c #7A4D37",
"0  c #704738",
"q  c #754B3A",
"w  c #794E3B",
"e  c #7F5037",
"r  c #7D523D",
"t  c #714C40",
"y  c #6E524F",
"u  c #7D5544",
"i  c #74534B",
"p  c #7E6361",
"a  c #83553E",
"s  c #85583F",
"d  c #845740",
"f  c #865840",
"g  c #885A42",
"h  c #8A5E48",
"j  c #8B604D",
"k  c #856257",
"l  c #8C6350",
"z  c #8E6857",
"x  c #8E695B",
"c  c #916C5C",
"v  c #98705C",
"b  c #8A6C65",
"n  c #936F61",
"m  c #937164",
"M  c #947368",
"N  c #98776A",
"B  c #9A7A6E",
"V  c #997A70",
"C  c #9F847E",
"Z  c #96848A",
"A  c #A38A83",
"S  c #A28D8C",
"D  c #A79496",
"F  c #A79598",
"G  c #A89699",
"H  c #AA999B",
"J  c #9D96A5",
"K  c #AC9DA3",
"L  c #B09FA0",
"P  c #AFA3AA",
"I  c #B0A5AC",
"U  c #B9AAAB",
"Y  c #ABA7B8",
"T  c #ADAABB",
"R  c #B3ABB6",
"E  c #B3ADBB",
"W  c #B7B2BF",
"Q  c #BDB6BE",
"!  c #C6B4AE",
"~  c #CBB8AD",
"^  c #CDBFBD",
"/  c #BAB5C1",
"(  c #BCB9C6",
")  c #BCBCCF",
"_  c #C5C0CA",
"`  c #D5CDCF",
"'  c #C4C6DA",
"]  c #C7CADD",
"[  c #C6CCE4",
"{  c #C8CDE4",
"}  c #CCD2E7",
"|  c #CBD4ED",
" . c #D7D8E4",
".. c #D1D8EF",
"X. c #DFDFE8",
"o. c #CCD6F1",
"O. c #CEDAF5",
"+. c #CFDDFA",
"@. c #D3DDF6",
"#. c #D8DFF2",
"$. c #D1DDF9",
"%. c #CFE0FE",
"&. c #DEE3F2",
"*. c #D4E1FC",
"=. c #DBE5FC",
"-. c #DDE8FE",
";. c #F3EFED",
":. c #E1E6F4",
">. c #EEEDF2",
",. c #E3ECFD",
"<. c #E9EFFD",
"1. c #ECF2FE",
"2. c #F5F3F2",
"3. c #F8F5F3",
"4. c #F3F6FD",
"5. c #F6F9FE",
"6. c #FEFFFF",
"7. c None",
/* pixels */
"7.7.7.7.7.7.7.7.7.7.7.7.7.7.7.7.7.7.7.7.7.7.7.7.7.7.7.7.7.7.7.7.7.7.7.7.7.7.7.7.7.7.7.7.7.7.7.7.7.7.7.7.7.7.7.7.7.7.7.7.7.7.7.7.",
"7.7.7.7.7.7.7.7.7.7.7.7.7.7.7.7.7.7.7.7.7.7.7.7.7.7.7.7.7.7.7.7.7.7.7.7.7.7.7.7.7.7.7.7.7.7.7.7.7.7.7.7.7.7.7.7.7.7.7.7.7.7.7.7.",
"7.7.7.7.7.7.7.7.7.7.7.7.7.7.7.7.7.7.7.7.7.7.7.7.7.7.7.7.7.7.7.7.7.7.7.7.7.7.7.7.7.7.7.7.7.7.7.7.7.7.7.7.7.7.7.7.7.7.7.7.7.7.7.7.",
"7.7.7.7.7.7.7.7.7.7.7.7.7.7.7.7.7.7.7.7.7.7.7.7.7.7.7.7.7.7.7.7.7.7.7.7.7.7.7.7.7.7.7.7.7.7.7.7.7.7.7.7.7.7.7.7.7.7.7.7.7.7.7.7.",
"7.7.7.7.7.7.7.7.7.7.7.7.7.7.7.7.7.7.7.7.7.7.7.7.7.7.7.7.7.7.7.7.7.7.7.7.7.7.7.7.7.7.7.7.7.7.7.7.7.7.7.7.7.7.7.7.7.7.7.7.7.7.7.7.",
"7.7.7.7.7.7.7.7.7.7.7.7.7.7.7.7.7.7.7.7.7.7.7.7.7.7.7.7.7.7.7.7.7.7.7.7.7.7.7.7.7.7.7.7.7.7.7.7.7.7.7.7.7.7.7.7.7.7.7.7.7.7.7.7.",
"7.7.7.7.7.7.7.7.7.7.7.7.7.7.7.7.7.7.7.7.7.7.7.7.7.7.7.7.7.7.7.7.7.7.7.7.7.7.7.7.7.7.7.7.7.7.7.7.7.7.7.7.7.7.7.7.7.7.7.7.7.7.7.7.",
"7.7.7.7.7.7.7.7.7.7.7.7.7.7.7.7.7.7.7.7.7.6.6.6.6.6.6.6.6.6.6.6.7.7.7.7.7.7.7.7.7.7.7.7.7.7.7.7.7.7.7.7.7.7.7.7.7.7.7.7.7.7.7.7.",
"7.7.7.7.7.7.7.7.7.7.7.7.7.7.7.7.7.7.7.7.6.6.6.6.6.6.6.6.6.6.6.6.6.7.7.7.7.7.7.7.7.7.7.7.7.7.7.7.7.7.7.7.7.7.7.7.7.7.7.7.7.7.7.7.",
"7.7.7.7.7.7.7.7.7.7.7.7.7.7.6.6.6.6.6.6.6.6.6.6.6.6.6.6.6.6.6.6.6.6.6.6.6.6.6.6.6.6.6.6.6.6.6.6.6.6.7.7.7.7.7.7.7.7.7.7.7.7.7.7.",
"7.7.7.7.7.7.7.7.7.7.7.7.7.6.6.6.6.6.5.5.5.6.6.6.6.6.6.6.6.6.6.5.5.5.5.6.6.6.6.6.6.6.6.6.6.6.6.6.6.6.6.7.7.7.7.7.7.7.7.7.7.7.7.7.",
"7.7.7.7.7.7.7.7.7.7.6.6.6.6.6.6.6.5.<.,.1.6.6.6.6.6.6.6.6.6.6.4.,.,.4.6.6.6.6.6.6.6.6.6.6.6.6.6.6.6.6.6.6.6.7.7.7.7.7.7.7.7.7.7.",
"7.7.7.7.7.7.7.7.7.6.6.6.5.5.5.5.5.4.-.*.-.4.6.5.5.5.5.5.5.5.5.<.=.*.,.5.6.6.6.6.6.6.6.6.6.6.6.5.5.5.6.6.6.6.6.7.7.7.7.7.7.7.7.7.",
"7.7.7.7.7.7.7.7.6.6.6.1.,.,.:.,.,.-.*.*.=.-.,.,.,.,.,.,.<.>.,.,.*.$.=.,.4.6.6.6.6.6.6.6.6.6.6.5.1.<.4.6.6.6.6.6.7.7.7.7.7.7.7.7.",
"7.7.7.7.7.7.7.6.6.6.4.,.$.+.$.O.| [ [ [ [ [ [ { { { } [ { { { { { [ [ } &.4.6.5.6.6.6.6.6.6.6.4.=.=.,.5.3.;.;.4.6.7.7.7.7.7.7.7.",
"7.7.7.7.7.7.7.6.6.4.,.=.*.+.+.[ R G F G G F F F F F F F D G G D G G D K _ &.<.<.1.5.6.6.6.6.6.4.=.$.-.:.` ! ^ X.1.7.7.7.7.7.7.7.",
"7.7.7.7.7.7.7.3.;.X.o.o.| o.} / C l h h l j l l j l l h l l h l j j j c H ] o.o.X.1.5.6.6.6.6.1.=.$.O.] K B A ( o.7.7.7.7.7.7.7.",
"7.7.7.7.7.7.7.~ ! U P P P I P S c a a a s a a a a a a a a a a a a a a h B H P P /  .1.4.1.1.1.,.=.| ) K V h x Z J 7.7.7.7.7.7.7.",
"7.7.7.7.7.7.7.v c c x z c c c l g f s a s a s s a f d d s s s s s a s d j z z z Z ^ ..$.$.@.$.$.O.' G m h f d i y 7.7.7.7.7.7.7.",
"7.7.7.7.7.7.7.a a w 8 8 q w a a w r a d a w a a f f f f s s s s e 9 q r e a e 9 k Z R / E R Y Y E K B h a f w 3 ; 7.7.7.7.7.7.7.",
"7.7.7.7.7.7.7.s r 0 5 3 3 q r r 0 6 w d 9 6 0 a f f f f f f f w 0 5 4 5 w a 9 6 q k M N n b p b b n l f s s w 3 2 7.7.7.7.7.7.7.",
"7.7.7.7.7.7.7.s r 6 3 3 5 q a w 5 3 q d q 3 3 q w d f f f f f w 5 2 2 4 0 r w 4 4 q a a 9 7 3 3 w f a r a a w 5 2 7.7.7.7.7.7.7.",
"7.7.7.7.7.7.7.g r 5 3 5 w a d w 3 3 q w q 3 3 3 0 a f f f f d w 4 2 2 2 0 r w 4 4 w e q 5 3 3 3 9 e q 6 q r w 3 2 7.7.7.7.7.7.7.",
"7.7.7.7.7.7.7.s r 0 6 q a f f w 0 0 w d w 6 3 3 0 w f f f f d a 6 4 4 4 w r r 6 5 r r w 5 3 3 0 w u q 6 q a w 5 2 7.7.7.7.7.7.7.",
"7.7.7.7.7.7.7.f a w w d d f f a u w a a a w q q w d d d f f d d r q q w r d r r w a d w w q q w d a r w r a w 5 2 7.7.7.7.7.7.7.",
"7.7.7.7.7.7.7.f f f d d f f f d d d d f f f d d d d d d f d f f d d d s d d f d f f f d d f d f d f f f f a w 4 2 7.7.7.7.7.7.7.",
"7.7.7.7.7.7.7.f f f f f f f f f f f f f f f f g f f d f f f f f g g g g g d g g f f f f f f f f f f f g g f w 4 2 7.7.7.7.7.7.7.",
"7.7.7.7.7.7.7.f f f f f d d d d d d d f f f f f f f d f f d f d d d f f s d s s d f f f f f f f d a d f f a w 5 2 7.7.7.7.7.7.7.",
"7.7.7.7.7.7.7.f f f s w w r d a w 9 q t a d f f f f f d f f d d r w r s r w q w w d d f f f f r w q q w r a w 4 2 7.7.7.7.7.7.7.",
"7.7.7.7.7.7.7.f f f u q 5 q a w 0 3 3 6 q a f g d f d d f f d a 6 5 w s w 4 3 4 6 r d f f f f r 6 3 3 5 q u w 5 3 7.7.7.7.7.7.7.",
"7.7.7.7.7.7.7.s a r q 5 3 0 r a q 3 3 3 0 w d w w w a a d f d w 4 4 q r q 2 1 2 4 w d d r r d r 5 2 3 6 q d w 4 2 7.7.7.7.7.7.7.",
"7.7.7.7.7.7.7.g r q 4 3 3 6 r s d q 3 3 0 d w 0 3 3 6 w d f d w 4 4 w r q 4 2 2 4 w r q 5 q r r 5 4 6 r d d w 5 2 7.7.7.7.7.7.7.",
"7.7.7.7.7.7.7.f u q 5 4 5 q r f f d 0 6 q r r 6 5 3 5 9 d f f r 6 6 r r r 6 4 4 6 r d q 6 0 r r 0 6 q f g s w 4 2 7.7.7.7.7.7.7.",
"7.7.7.7.7.7.7.f a r w q w r f f f f r w d d d r w w w u f f f d r r r d r r q r w d d r r r d d r r d f f s w 4 2 7.7.7.7.7.7.7.",
"7.7.7.7.7.7.7.f f f f f f f f f f f f f f f f f f f d f f f f f f s d f f d f f f f f f f f f f f f d f f s q 5 2 7.7.7.7.7.7.7.",
"7.7.7.7.7.7.7.f f f g f f f f f f f f f f f f f f f f f f f f f g g f f f f f g f f f f f f f f f f f f f d u 5 2 7.7.7.7.7.7.7.",
"7.7.7.7.7.7.7.d d a d d f f f f f f f f d g f f f f f f f f f f f d f d f f f f f f f f f f f f f f f f f d q 4 2 7.7.7.7.7.7.7.",
"7.7.7.7.7.7.7.0 0 q 9 w f f f f f f f f d g f g f f f f f f f f g f g g g f g f f f f f f f f f f f f d r q 5 4 3 7.7.7.7.7.7.7.",
"7.7.7.7.7.7.7.3 3 3 3 q a d f d d f f d d d d d f f f f f f d f s d d d d d s d f d f f f d s s d f f d q 4 3 2 2 7.7.7.7.7.7.7.",
"7.7.7.7.7.7.7.7.2 2 3 6 q q q w q q q q q q q q q q q q q q q w w w w q q q q q q q q q q q q q q q q q 5 2 2 2 7.7.7.7.7.7.7.7.",
"7.7.7.7.7.7.7.7.7.3 2 3 3 3 3 4 3 4 5 3 4 3 3 5 4 4 4 4 4 3 3 3 4 4 4 4 4 4 4 4 4 4 4 4 4 4 4 5 4 4 4 4 3 2 2 7.7.7.7.7.7.7.7.7.",
"7.7.7.7.7.7.7.7.7.7.2 3 2 2 3 2 2 2 2 2 2 3 2 2 2 2 2 2 2 2 1 1 , 1 1 2 2 2 2 2 2 2 2 2 2 2 2 2 2 2 2 2 2 3 7.7.7.7.7.7.7.7.7.7.",
"7.7.7.7.7.7.7.7.7.7.7.7.7.7.7.7.7.7.7.7.7.7.7.7.7.7.7.7.7., > > > > , 7.7.7.7.7.7.7.7.7.7.7.7.7.7.7.7.7.7.7.7.7.7.7.7.7.7.7.7.7.",
"7.7.7.7.7.7.7.7.7.7.7.7.7.7.7.7.7.7.7.7.7.7.7.7.7.7.7.7.7.7.> : & : 7.7.7.7.7.7.7.7.7.7.7.7.7.7.7.7.7.7.7.7.7.7.7.7.7.7.7.7.7.7.",
"7.7.7.7.7.7.7.7.7.7.7.7.7.7.7.7.7.7.7.7.7.7.7.7.7.7.7.7.7.7.1 , : & 7.7.7.7.7.7.7.7.7.7.7.7.7.7.7.7.7.7.7.7.7.7.7.7.7.7.7.7.7.7.",
"7.7.7.7.7.7.7.7.7.7.7.7.7.7.7.7.7.7.7.7.7.7.7.7.7.7.7.7.7.7.2 1 < > 7.7.7.7.7.7.7.7.7.7.7.7.7.7.7.7.7.7.7.7.7.7.7.7.7.7.7.7.7.7.",
"7.7.7.7.7.7.7.7.7.7.7.7.7.7.7.7.7.7.7.7.7.7.7.7.7.7.7.7.7.7.3 2 1 1 7.7.7.7.7.7.7.7.7.7.7.7.7.7.7.7.7.7.7.7.7.7.7.7.7.7.7.7.7.7.",
"7.7.7.7.7.7.7.7.7.7.7.7.7.7.7.7.7.7.7.7.7.7.7.7.7.7.7.7.7.7.2 2 2 1 7.7.7.7.7.7.7.7.7.7.7.7.7.7.7.7.7.7.7.7.7.7.7.7.7.7.7.7.7.7.",
"7.7.7.7.7.7.7.7.7.7.7.7.7.7.7.7.7.7.7.7.7.7.7.7.7.7.7.7.7.7.= - - - 7.7.7.7.7.7.7.7.7.7.7.7.7.7.7.7.7.7.7.7.7.7.7.7.7.7.7.7.7.7.",
"7.7.7.7.7.7.7.7.7.7.7.7.7.7.7.7.7.7.7.7.7.7.7.7.7.7.7.7.7.o * * * * o 7.7.7.7.7.7.7.7.7.7.7.7.7.7.7.7.7.7.7.7.7.7.7.7.7.7.7.7.7.",
"7.7.7.7.7.7.7.7.7.7.7.7.7.7.7.7.7.7.7.7.7.7.7.7.7.7.7.7.7.X $ * * $ X 7.7.7.7.7.7.7.7.7.7.7.7.7.7.7.7.7.7.7.7.7.7.7.7.7.7.7.7.7.",
"7.7.7.7.7.7.7.7.7.7.7.7.7.7.7.7.7.7.7.7.7.7.7.7.7.7.7.7.7.X $ * * $ X 7.7.7.7.7.7.7.7.7.7.7.7.7.7.7.7.7.7.7.7.7.7.7.7.7.7.7.7.7.",
"7.7.7.7.7.7.7.7.7.7.7.7.7.7.7.7.7.7.7.7.7.7.7.7.7.7.7.7.7.X $ * * $ X 7.7.7.7.7.7.7.7.7.7.7.7.7.7.7.7.7.7.7.7.7.7.7.7.7.7.7.7.7.",
"7.7.7.7.7.7.7.7.7.7.7.7.7.7.7.7.7.7.7.7.7.7.7.7.7.7.7.7.7.X $ * * $ X 7.7.7.7.7.7.7.7.7.7.7.7.7.7.7.7.7.7.7.7.7.7.7.7.7.7.7.7.7.",
"7.7.7.7.7.7.7.7.7.7.7.7.7.7.7.7.7.7.7.7.7.7.7.7.7.7.7.7.7.X # $ $ $ X 7.7.7.7.7.7.7.7.7.7.7.7.7.7.7.7.7.7.7.7.7.7.7.7.7.7.7.7.7.",
"7.7.7.7.7.7.7.7.7.7.7.7.7.7.7.7.7.7.7.7.7.7.7.7.7.7.7.7.7.. @ % % @ . 7.7.7.7.7.7.7.7.7.7.7.7.7.7.7.7.7.7.7.7.7.7.7.7.7.7.7.7.7.",
"7.7.7.7.7.7.7.7.7.7.7.7.7.7.7.7.7.7.7.7.7.7.7.7.7.7.7.7.7.  O O + O   7.7.7.7.7.7.7.7.7.7.7.7.7.7.7.7.7.7.7.7.7.7.7.7.7.7.7.7.7.",
"7.7.7.7.7.7.7.7.7.7.7.7.7.7.7.7.7.7.7.7.7.7.7.7.7.7.7.7.7.7.  O     7.7.7.7.7.7.7.7.7.7.7.7.7.7.7.7.7.7.7.7.7.7.7.7.7.7.7.7.7.7.",
"7.7.7.7.7.7.7.7.7.7.7.7.7.7.7.7.7.7.7.7.7.7.7.7.7.7.7.7.7.7.7.7.7.7.7.7.7.7.7.7.7.7.7.7.7.7.7.7.7.7.7.7.7.7.7.7.7.7.7.7.7.7.7.7.",
"7.7.7.7.7.7.7.7.7.7.7.7.7.7.7.7.7.7.7.7.7.7.7.7.7.7.7.7.7.7.7.7.7.7.7.7.7.7.7.7.7.7.7.7.7.7.7.7.7.7.7.7.7.7.7.7.7.7.7.7.7.7.7.7.",
"7.7.7.7.7.7.7.7.7.7.7.7.7.7.7.7.7.7.7.7.7.7.7.7.7.7.7.7.7.7.7.7.7.7.7.7.7.7.7.7.7.7.7.7.7.7.7.7.7.7.7.7.7.7.7.7.7.7.7.7.7.7.7.7.",
"7.7.7.7.7.7.7.7.7.7.7.7.7.7.7.7.7.7.7.7.7.7.7.7.7.7.7.7.7.7.7.7.7.7.7.7.7.7.7.7.7.7.7.7.7.7.7.7.7.7.7.7.7.7.7.7.7.7.7.7.7.7.7.7.",
"7.7.7.7.7.7.7.7.7.7.7.7.7.7.7.7.7.7.7.7.7.7.7.7.7.7.7.7.7.7.7.7.7.7.7.7.7.7.7.7.7.7.7.7.7.7.7.7.7.7.7.7.7.7.7.7.7.7.7.7.7.7.7.7.",
"7.7.7.7.7.7.7.7.7.7.7.7.7.7.7.7.7.7.7.7.7.7.7.7.7.7.7.7.7.7.7.7.7.7.7.7.7.7.7.7.7.7.7.7.7.7.7.7.7.7.7.7.7.7.7.7.7.7.7.7.7.7.7.7."
};
