/* XPM */
static char *result[] = {
/* columns rows colors chars-per-pixel */
"64 64 248 2 ",
"   c #D1DDF9",
".  c #D0DCF8",
"X  c #A8B5C2",
"o  c #A2AFBA",
"O  c #C9D5EE",
"+  c #D1DEFA",
"@  c #D2DFFD",
"#  c #8A8E98",
"$  c #686868",
"%  c #ACB4C6",
"&  c #D6E2FF",
"*  c #B5C2D4",
"=  c #B9C6D9",
"-  c #D1DEFB",
";  c #CFDCF9",
":  c #D3E0FD",
">  c #AAB2C6",
",  c #6C6D6E",
"<  c #6D6E6F",
"1  c #8D929C",
"2  c #BAC4DA",
"3  c #737376",
"4  c #838088",
"5  c #727376",
"6  c #92919D",
"7  c #CAD7F1",
"8  c #A0ACB6",
"9  c #86838B",
"0  c #86828B",
"q  c #75777B",
"w  c #C9D4EE",
"e  c #D1DDFA",
"r  c #D0DDF9",
"t  c #A9B6C3",
"y  c #A1AFB9",
"u  c #C8D4ED",
"i  c #D2DEFA",
"p  c #D2DFFE",
"a  c #8D929D",
"s  c #676867",
"d  c #A8B0C1",
"f  c #B7C4D6",
"g  c #D3DFFD",
"h  c #ADB6CA",
"j  c #6D6F70",
"k  c #8A8E97",
"l  c #BCC7DD",
"z  c #908E9A",
"x  c #CBD7F1",
"c  c #A1ADB8",
"v  c #FCFDFF",
"b  c #FBFCFE",
"n  c #D4DFF7",
"m  c #CEDAF6",
"M  c #F4F7FD",
"N  c #FDFDFF",
"B  c #FDFEFF",
"V  c #DFE9FE",
"C  c #9A9BAA",
"Z  c #AFB6CA",
"A  c #EBF1FC",
"S  c white",
"D  c #E1E9F9",
"F  c #E6ECFA",
"G  c #E7EEFC",
"H  c #E3EAFC",
"J  c #EAF0FD",
"K  c #CDDAF6",
"L  c #CAD6F1",
"P  c #DAE2F5",
"I  c #F1F4FC",
"U  c #CCD8F3",
"Y  c #CBD7F2",
"T  c #D4DDF5",
"R  c #F6F9FE",
"E  c #CAD6EF",
"W  c #A5B2BE",
"Q  c #CAD6F0",
"!  c #CED9F2",
"~  c #F8FAFE",
"^  c #D5E0F7",
"/  c #CDDAF5",
"(  c #F3F6FD",
")  c #FEFEFF",
"_  c #E1EAFF",
"`  c #9C9EAE",
"'  c #ADB2C7",
"]  c #EAF0FC",
"[  c #E3EAFA",
"{  c #E4EBFA",
"}  c #E9EFFC",
"|  c #E1E9FB",
" . c #ECF1FD",
".. c #D9E1F5",
"X. c #F2F5FC",
"o. c #CBD6F2",
"O. c #D3DDF4",
"+. c #F7F9FE",
"@. c #CCD8F1",
"#. c #FEFFFF",
"$. c #DAE2F6",
"%. c #EAEFFA",
"&. c #E9EEFC",
"*. c #F8F9FE",
"=. c #D3DEF7",
"-. c #FAFBFE",
";. c #DCE4F7",
":. c #E9EEFA",
">. c #E2E9FB",
",. c #F9FAFE",
"<. c #D0DCF6",
"1. c #D3DFFA",
"2. c #FBFCFF",
"3. c #A7B4C1",
"4. c #D1DCF5",
"5. c #F5F8FE",
"6. c #D8E3FA",
"7. c #FBFBFC",
"8. c #FAFAFB",
"9. c #FEFEFE",
"0. c #D8E2FA",
"q. c #F2F6FD",
"w. c #DBE4FB",
"e. c #D6E1FA",
"r. c #FAFBFC",
"t. c #B5C0C8",
"y. c #A5B2BC",
"u. c #E7EAED",
"i. c #F4F7FE",
"p. c #DAE4FA",
"a. c #D5E0FA",
"s. c #F2F5FD",
"d. c #D9E3FA",
"f. c #F6F8FE",
"g. c #B4BFC7",
"h. c #C2CFE8",
"j. c #CCD9F6",
"k. c #ADBBC9",
"l. c #E8EBED",
"z. c #F3F6FE",
"x. c #D7E2FA",
"c. c #ADBAC7",
"v. c #C8D5ED",
"b. c #CCD9F7",
"n. c #DAE4FB",
"m. c #CEDBF9",
"M. c #F2F5FB",
"N. c #FDFDFE",
"B. c #F9FBFE",
"V. c #D4DFFA",
"C. c #DBE5FB",
"Z. c #FDFEFE",
"A. c #FDFDFD",
"S. c #BCC6CC",
"D. c #E1E5E8",
"F. c #BBC5CC",
"G. c #E2E6E9",
"H. c #BEC7CE",
"J. c #CFDAF4",
"K. c #8F8D98",
"L. c #CFD9F1",
"P. c #FCFCFD",
"I. c #FCFDFD",
"U. c #CBD2D7",
"Y. c #D0D7DB",
"T. c #D4E0FA",
"R. c #FCFCFE",
"E. c #CAD2D7",
"W. c #D3D9DD",
"Q. c #CDD5D9",
"!. c #FBFCFC",
"~. c #B7C1C9",
"^. c #C6D3EB",
"/. c #B4BFC5",
"(. c #C3D0E9",
"). c #CBD8F6",
"_. c #F0F4FC",
"`. c #C3D0EA",
"'. c #ACBACA",
"]. c #E5E9ED",
"[. c #C4D1E8",
"{. c #EEF3FD",
"}. c #DCE5FB",
"|. c #D0DCF9",
" X c #F0F4FD",
".X c #E8EEFC",
"XX c #E4EBFC",
"oX c #FAFBFB",
"OX c #C9D6EF",
"+X c #B0BCC5",
"@X c #F7F8F9",
"#X c #EFF2F5",
"$X c #AAB8C5",
"%X c #C6D4EE",
"&X c #ADB9C2",
"*X c #F5F8FD",
"=X c #C7D4EF",
"-X c #EDF0F2",
";X c #B4BFC6",
":X c #F8F9FA",
">X c #DBE1E4",
",X c #C0CACF",
"<X c #CBD8F2",
"1X c #F0F2F3",
"2X c #B5C0C7",
"3X c #EAEDEF",
"4X c #DCE1E5",
"5X c #C3CBD1",
"6X c #DDE2E5",
"7X c #C0C9CF",
"8X c #FCFDFE",
"9X c #DFE8FB",
"0X c #DDE6FB",
"qX c #F1F5FD",
"wX c #DFE7FB",
"eX c #EBF0FD",
"rX c #EFF4FD",
"tX c #EBEEF0",
"yX c #F9FAFB",
"uX c #B6C1C8",
"iX c #E9ECEE",
"pX c #D3DEFA",
"aX c #DEE7FB",
"sX c #EEF2FD",
"dX c #D7E1FA",
"fX c #F6F8FB",
"gX c #EDF2FD",
"hX c #CCD9F3",
"jX c #ABB8C4",
"kX c #CDD9F3",
"lX c #DEE6FB",
"zX c #F8F9FB",
"xX c #B8C3C9",
"cX c #ECEEF0",
"vX c #DDE6FC",
"bX c #F2F4F5",
"nX c #ACB9C5",
"mX c #CAD7F4",
"MX c #C6D3ED",
"NX c #AEBAC4",
"BX c #F4F6F7",
"VX c #F7F9F9",
"CX c #B8C2C9",
"ZX c #A9B5BF",
"AX c #AEBAC3",
"SX c #F6F7F8",
"DX c #F2F3F5",
"FX c #B3BEC6",
/* pixels */
"    . X o O +     @ # $ % & * = - ; : > , < 1 2 3 4 5 6 7 8 9 0 q w e r t y u i     p a s d & f f - ; g h , j k l 3 4 5 z x c 9 ",
"v v b n m M N v B V C Z A S D F G H J K x L P I L U Y T R E W Q ! ~ v v ^ / ( N v ) _ ` ' ] S [ { } |  .K x L ..X.o.U Y O.+.@.o ",
"v S S N v S S S S #.$.%.S S B ) S &.H ) v v B #.v v v N S *.=.-.v S S S N v #.S S S S ;.:.S S B ) S ] >.) v v B #.v v v N S ,.<.",
"1.2.S S S S S S S S B ) S S S S S ) B S S S S S S S S S S S N S S S S S S S S S S S S B ) S S S S S ) B S S S S S S S S S S S v ",
"m ~ S S S S S S S S S S S S S S S S S S S S S S S #.N S S S S S S S S S S S S S S S S S S S S S S S S S S S S S S S S N S S S S ",
"3.4.2.S S S S S S S S S S S S S S S S S S S S ) B 5.6.S S S S S S S S S S 7.8.9.S S S S S S S S S S S S S S S S #.B +.0.S S S S ",
"<.,.S S S S S S S S S S S S S S S S S S S S S q.w.5.e.S S S S S S S S S r.t.y.u.S S S S S S S S S S S S S S S S i.p.+.a.#.S S S ",
"-.S S S S S S S S S S S S S S S S S S S S S S s.d.f.6.S S S S S S S S 9.g.h.j.k.l.S S S S S S S S S S S S S S S z.x.+.0.S S S S ",
"1.2.S S N v v #.S S S S S S S S S S S S S S S s.0.S N S S S S S S S S v =.c.v.b.X.S S S S S S S S S S S S S S S z.x.S N S S S S ",
"  2.S S p.1.1.5.S S S S S S S S S S S S S S S q.n.S S S S S S S S S ) e.m.M.N.p.q.S S S S S S S S S S S S S S S i.d.S S S S S S ",
"  2.S S N -.B.v v ) S S S S S S S S S S S S S ) N S S S S S S S S S ) V.r +.S N ) S S S S S S S S S S S S S S S #.N S S S S S S ",
"1.2.S S S C.1.1.i ( S S S S S S S S S S S S S S S S S S S S S S S S ) x.f.S S S S S S S S S S S S S S S S S S S S S S S S S S S ",
"-.S S S S N v v v ) S S S S S S S S S S S S S S S S S S S S S S S S S N S S S S S S S S S S S S S S S S S S S S S S S S S S S S ",
"1.2.S S S S S S S S S S S S S S S S S S S S S S S S S S S S S S S S S S S S S S 7.Z.S S S S S S S S S S S S S S S S S S S S S S ",
"  2.S S S S S S S S S S S S S S S S S S S S S S S S S S S S S S S S S S S S S A.S.D.S S S S S S S S S S S S S S S S S S S S S S ",
"  2.S S S S S S S S S S S S S S S S S S S S S S S S S S S S S S S S S S S S S F.G.H.G.S S S S S S S S S S S S S S S S S S S S S ",
"1.,.S S S S S S S S S S S S S S S S S S S S S S S S S S S S S S S S S S S S S A.S.D.S S S S S S S S S S S S S S S S S S S S S S ",
"~ 0.b S S S S S S S S S S S S S S S S S S S S S S S S S S S S S S S S S S S S S 7.Z.S S S S S S S S S S S S S S S S S S S S S S ",
"e.B.S S S S S S S S S S S S S S S S S S S S S S S S S S S S S S S S S S S S S S 7.Z.S S S S S S S S S S S S S S S S S S S S S S ",
"-.S S S S S S S S S S S S S S S S S S S S S S S S S S S S S S S S S S S S S S A.S.D.S S S S S S S S S S S S S S S S S S S S S S ",
"e.2.S S S S S S S S S S S S S S S S S S S S S S S S S S S S S S S S S S S S S F.G.H.G.S S S S S S S S S S S S S S S S S S S S S ",
"v S S S S S S S S S S S S S S S S S S S S S S S S S S S S S S S S S S S S S S A.S.D.S S S S S S S S S S S S S S S S S S S S S S ",
"v S S S S S S S S S S S S S S S S S S S S S S S S S S S S S S S S S S S S S S S 7.Z.S S S S S S S S S S S S S S S S S S S S S S ",
"J.~ S S S S S S S S S S S S S S S S S S S S S S S S S S S S S S S S S N S S S S S S S S S S S S S S S S S S S S S S S v v v N S ",
"K.L.2.S S S S S S S S S S S S S S S S S S S S S S S S S S S S S S S ) x.f.S S S S S S S S S S S S S S S S S S S S S *.1.1.1.x.N ",
"J.~ S S S S S S S S S S S S P.I.S S S S S S S ) N S S S S S S S S S ) V.r +.S N ) S S S S S S S S S S S S S S S S S S v v -.-.v ",
"v S S S S S S S S S S S S S U.Y.S S S S S S S q.n.S S S S S S S S S ) e.m.M.N.p.q.S S S S S S S S S S S S S S S S S S S -.T.1.1.",
"S S S S S S 7.R.v ) S S S E.W.Q.Y.S S S S S S s.0.S N S S S S S S S S v =.c.v.b.X.S S S S S S S S S S S S S S S S S S S S v v v ",
"S S S S S !.~.^.i ( S S S S U.Y.S S S S S S S s.d.f.6.S S S S S S S S 9.g.h.j.k.l.S S S S S S S S S S S S S S S S S S S S S S S ",
"v S S S S /.(.)._.S S S S S P.I.S S S S S S S q.w.5.e.S S S S S S S S S r.t.y.u.S S S S S S S S S S S S S S S S S S S S S S S S ",
"1.2.S S S /.`.'.].) ) S S S S S S S S S S S S ) B 5.6.S S S S S S S S S S 7.8.9.S S S S S S S S S S S S S S S S S S S S S S S S ",
"1.2.S S S !.~.[.  ; {.S S S S S S S S S S S S S S #.N S S S S S S S S S S S S S S S S S S S S S S S S S S S S S S S S S S S S S ",
"v S S S S S 7.N.}.|.   XS S S S S ) B S S S S S S S S S S S S S S S S S S S S S S S S S S S S S S S S S S S S S S S S S S S S S ",
"S S S S S S S S B v v ) S S S S S ] H S S S S S S S S S S S S S S S S S S S S S S S S S S S S S S ) B S S S S S S S S S S S S S ",
"v S S S S S S S S S S S S S S S S ) .XH S S S S S S S S S S S S S S S S S S S S S S S S S S S S S ] XXS S S S S #.v v N S S S S ",
"1.2.S S S S S S S S S S S S S S S ] H S S S S S S S S S S S S S S S S S S S S S S S S S S S S S S ) B S S S S S 5.i r x.b oXS S ",
"m ~ S S S S S S S S S S S S S S S ) B S S S S S S S S S S S S S S S S S S S S S S S S S S S S S S S S S S S S S S i.r   OX+X@XS ",
"3.4.2.S S S S S S S S S S S S S S S S S S S S S S S S S S S S S S S S S S S S S S S S S S S S S S S S S S S S S S #.B #X$X%X&XoX",
"<.,.S S S S S S S S S S S S S S S S S S S S S S S S S 9.oXS S S S S S S S S S S S S S S S S S S S S S S A.!.S S S S S *Xj.=X&XoX",
"-.S S S S S S S S S S S S S S S S S S S S S S S S S S -X;X:XS S S S S S S S S S S S S S S S S S S S S S >X,X9.S S S ~ 1.<X+X@XS ",
"1.2.S S N v v #.S S S S S S S S S S S S S S S S S S 1X2X3X;XI.S S S S S S S S S S S S S S S S S S S S 4X5X6X7XS S S S v 8XoXS S ",
"  2.S S p.1.1.5.S S S S S S S S S S S S S S S S S S S -X;X:XS S S S S S S S S S S S S B ) S S S S S S S >X,X9.S S S S S S S S S ",
"  2.S S N -.B.v v ) S S S S S S S S S S S S S S S S S 9.oXS S S S S S S S S S S S B S 9X .S S S S S S S A.!.S S S S S S S S S S ",
"1.2.S S S C.1.1.i ( S S S S S S S S S S S S S S S S S S S S S S S S S S S S S S S 0XqXwXeXS S S S S S S S S S S S S S S S S S S ",
"-.S S S S N v v v ) S S S S S S S S S S S S S S S S S S S S S S S S S S S S S S S w. X|  .S S S S S S S S S S S S S S S S S S S ",
"1.2.S S S S S S S S S S S S S S S S S S S S S S S S S S S S S S S S S S S S S S S 0XrX) ) S S S S S S S S S S S S S S S S S S S ",
"  2.S S S S S S S S S S S S S S S S S S S S S S S S S S S S S N S S S S S S S S S B ) S S S S S S S S S S S S S S S S S S S S S ",
"  2.S S S S S S S S S S S S S S S S S S S S S S S S S S S S B.0.-.S S S S S S S S S S S S S S S S S S S S S S S S S S S S S S S ",
"1.,.S S S S S S S S S S S S S S S S S S S S S S S S S S S b 0.5.0.2.S S S S S S S S S S S S S S S S S S S S S S S S S S S S S S ",
"~ 0.b S S S S S S S S S S S S S S S S S S S S S S S S S S S B.0.-.S S S S S S S S S S S S S S S S S S S S S S S S S S S S S S S ",
"e.B.S S S S S S S S S S S S S S S S S S S S S S S S 9.r.S S S N S S S S S S S S S S S S S S S S S S S S S S S S S S S S S S S S ",
"-.S S S S S S S S S S S S S S S S S S S S S S S S S tX2XyXS S S S S S S S S S S S S S S S S S S S S S S S S S S S S S S S S S S ",
"e.2.S S S S S S S S S S S S S S S S S S S S S S S -XuXiX2XN.S S S S S S S S S S S S S S S S S S S S S S S S S S S S S S S S S S ",
"v S S S S S S S S S S S S S S S S S S S S S S S S S tX2XyXS S S S S S S S S S S S S S S S S S S S S S S S S S S S S S S S S S S ",
"v S S S S S S S S S S S S S S S S S S S S S S S S S 9.r.S S S S S S S S S S S S S S S S S S S S S S S S S S S S S S S S S S S S ",
"J.~ S S S S S S S S S S S S S S S S S S S S S S S S S S S S S S N S S S S S S S S S S S S S S S S S S S S S S S S S S v v v N S ",
"K.L.2.S S S S S S S S S S S S S S S S S S S S S S S S S S S S -.e.2.S S S S S S S S S S S S S S S S S S S S S S S S *.1.1.1.x.N ",
"J.~ S S S S S S S S B ) S S S S S S S S S S S S S S S S N S 2.pX  2.S S S S S S S S S B ) S S S S S S S S S S S S S S v v -.-.v ",
"v S S S S S S S S S aXsXS S S S S S S S S S S S S S S ~ dXb fXr 1.2.S S S S S S S S S 9X .S S S S S S S S S S S S S S S -.T.1.1.",
"S S S S S S 7.9.B S }.gXS S S S S S S S S S S S S S S +.K hXjXkXB.S S S S S S S S B S lXeXS S S S S S S S S S S S S S S 9.zXv v ",
"S S S S S !.xXcXvXq.0XgXS S S S S S S S S S S S S S S bXnXmXMXNXyXS S S S S S S S 0XqXwXeXS S S S S S S S S S S S S S S BX;XVXS ",
"v S S S S CXiXS d.qXwXsXS S S S S S S S S S S S S S S S 1XZXAXSXS S S S S S S S S w. X|  .S S S S S S S S S S S S S S S S DXFX7.",
"1.2.S S S 7.9.S C.qX) ) S S S S S S S S S S S S S S S S ) oXoXS S S S S S S S S S 0XrX) ) S S S S S S S S S S S S S S S S #.oXS ",
"  2.S S S S S S N ) S S S S S S S S S S S S S S S S S S S S S S S S S S S S S S S N ) S S S S S S S S S S S S S S S S S S S S S "
};
