/* XPM */
static char *b7f1bde5058b43e5829285850f266172awCSqhkBbiAuBqDm[] = {
/* columns rows colors chars-per-pixel */
"64 64 183 2 ",
"   c None",
".  c #3E3F3F",
"X  c #464747",
"o  c #4B4C4B",
"O  c #4F5050",
"+  c #525353",
"@  c #585857",
"#  c #575858",
"$  c #5B5C5B",
"%  c #5E605F",
"&  c #5D5961",
"*  c #615E63",
"=  c #646565",
"-  c #676867",
";  c #666768",
":  c #676868",
">  c #6A6B6B",
",  c #6A656A",
"<  c #6F6E70",
"1  c #706F72",
"2  c #6F7172",
"3  c #737274",
"4  c #777877",
"5  c #767479",
"6  c #7A767C",
"7  c #76797D",
"8  c #7B797E",
"9  c #7F807F",
"0  c #7E7780",
"q  c #7E7A81",
"w  c #7E7D8B",
"e  c #837D86",
"r  c #857F88",
"t  c #7E8187",
"y  c #7E8289",
"u  c #838285",
"i  c #878886",
"p  c #85828B",
"a  c #89848D",
"s  c #8C8B8C",
"d  c #90908F",
"f  c #848691",
"g  c #8A8691",
"h  c #848993",
"j  c #8C8995",
"k  c #878D98",
"l  c #8E8C9A",
"z  c #928D94",
"x  c #908E9C",
"c  c #8E919D",
"v  c #929393",
"b  c #93919C",
"n  c #99949C",
"m  c #9B9C9B",
"M  c #A09D9F",
"N  c #9FA09F",
"B  c #8F94A2",
"V  c #9494A3",
"C  c #9895A0",
"Z  c #9198A7",
"A  c #9E9AA1",
"S  c #969AAA",
"D  c #999BAB",
"F  c #9C9EB0",
"G  c #A09DA3",
"H  c #9BA3AE",
"J  c #9DA0A5",
"K  c #9DA3B5",
"L  c #9EA7BA",
"P  c #A4A4A5",
"I  c #A8A8A7",
"U  c #A9A5AA",
"Y  c #ABABAB",
"T  c #A5A2AC",
"R  c #A2A4B6",
"E  c #A6AAB4",
"W  c #ACACB2",
"Q  c #A2A6BB",
"!  c #A4ABBD",
"~  c #AAADBC",
"^  c #B0ADB2",
"/  c #AFB1B4",
"(  c #A7B6BE",
")  c #AEB3BA",
"_  c #B5B5B4",
"`  c #B3B3BC",
"'  c #BAB6BD",
"]  c #BCBBBE",
"[  c #A6ACC2",
"{  c #A9AEC4",
"}  c #ABB3C3",
"|  c #ACB5CC",
" . c #B7B8C7",
".. c #BBBBC3",
"X. c #B1B6CA",
"o. c #B5BACD",
"O. c #B2B6C4",
"+. c #AFB7D2",
"@. c #AFB9D2",
"#. c #B2BCD4",
"$. c #B4BED9",
"%. c #C2BFC3",
"&. c #B3C1C8",
"*. c #B8C7CE",
"=. c #B7C0D1",
"-. c #BCC3D4",
";. c #B6C1DC",
":. c #BCC5DD",
">. c #BAC6E1",
",. c #BDC9E4",
"<. c #BFCCE9",
"1. c #C4C2C4",
"2. c #C3C4CB",
"3. c #C6C9CE",
"4. c #CACACC",
"5. c #CAC7CB",
"6. c #C4C6D3",
"7. c #C5CFD4",
"8. c #CDCDD3",
"9. c #C0C7DB",
"0. c #C8CDDE",
"q. c #D1CFD4",
"w. c #CED0D5",
"e. c #CBD1DC",
"r. c #D2D2D4",
"t. c #D5D6DE",
"y. c #DBDBDC",
"u. c #C3CDE5",
"i. c #C1CEEC",
"p. c #CCD4E7",
"a. c #C3D1EC",
"s. c #CCD6EA",
"d. c #CED8EF",
"f. c #DBDDE4",
"g. c #D3DBEE",
"h. c #D6DAE5",
"j. c #C5D3F2",
"k. c #CAD7F3",
"l. c #CDDAF6",
"z. c #CCDBF9",
"x. c #D4DEF3",
"c. c #D2DFFB",
"v. c #E0DEE0",
"b. c #DCE2E6",
"n. c #DDE1E8",
"m. c #D5E0F7",
"M. c #DDE4F4",
"N. c #D5E2FC",
"B. c #DAE6FD",
"V. c #DDE9FF",
"C. c #E4E3E4",
"Z. c #E8E8E7",
"A. c #E3E5EB",
"S. c #E6E9EF",
"D. c #EAEAEA",
"F. c #E4E9F3",
"G. c #EBEDF2",
"H. c #E6EEFB",
"J. c #E4EEFF",
"K. c #E7EFFE",
"L. c #E4ECFC",
"P. c #E9EEF9",
"I. c #E2E6F1",
"U. c #EFF1F5",
"Y. c #E6F0FF",
"T. c #E9F1FE",
"R. c #EBF2FE",
"E. c #F2F3F4",
"W. c #F0F5FF",
"Q. c #F1F6FF",
"!. c #F2F7FF",
"~. c #F2F6FD",
"^. c #F7FAFF",
"/. c #F5F9FF",
"(. c #F5F9FF",
"). c #F8FBFF",
"_. c #FBFDFE",
"`. c #FDFEFF",
"'. c #FDFEFE",
"]. c white",
"[. c #FEFFFF",
"{. c #FCFDFF",
"}. c #FEFEFF",
/* pixels */
"                                                                                                                                ",
"                                                                                                                                ",
"                                                                                                                                ",
"                                                                                                                                ",
"                                                                                                                                ",
"                                                          ].].].].        ].].].                                                ",
"                                                        ].].].].].      ].].].].].                                              ",
"                                                      ].].].].].].].  ].].].].].].].                                            ",
"                                                    ].].].].].].].].].].].].].].].].].                                          ",
"                                                  ].].].].].].].].].].].].].].].].].].].                                        ",
"                                                ].].].].].].].].].].].].].].].].].].].].].                                      ",
"                                              ].].].].].].].].].].].].].].].].].].].].].].].                                    ",
"                                            ].].].].].].].].].].].].].].].].].].].].].].].].].                                  ",
"                                          ].].].].].].].].{.].].].].].].].].].].].].].].].].].].                                ",
"                                        ].].].].]._.)./././././.).].].].].].].].].].]._.)./.).).).                              ",
"                                      ].].].].].]./.T.J.K.K.K.L.T./.].].].].].].].].].Q.T.J.J.Y.T.                              ",
"                                    ].]._.].].].{.H.c.z.z.z.z.z.B.R.).].{.].{.].'.'.).Y.c.z.z.z.l.                              ",
"                                  /.Q.Q.R.Q.Q.Q.P.g.9.#.#.#.#.#.9.x.P./.Q.W.W.~.~.~.Y.p.#.| #.#.{                               ",
"                                ].Q.J.B.V.B.V.V.x.$.R V V V V V R 9.c.V.B.B.B.B.V.V.l.X.c h l V l g e                           ",
"                              ].].P.x.i.<.i.a.j.u.! j e e e e r x { u.j.j.i.i.i.j.a.:.S 7 > 4 e e e r                           ",
"                              ].{.A.6.[ [ [ [ [ R V a e 0 e e e a V ! [ [ ! [ ! [ [ K h 2 - > 3 8 e r r e                       ",
"                              ].).y.E j f j j j g a r e e e e e r g j j g g j j j l g 8 2 > > > 5 e r r e r                     ",
"                              G.v.2.n e 6 e e e e e r e e e e r e e e e e e e 0 e e 0 4 > : - - < 6 0 e r r                     ",
"                              *.&.E z e e e 0 e e e e e e e r e e e e e 0 e e e e e e 5 > - = = ; < 5 0 e u r r                 ",
"                              &.( H l u e e e e e e e r e r e r e e e e r e r e r e 8 5 , > 3 4 3 > 1 5 e e r e                 ",
"                            U.b.w.) b e 6 e e e e e r e r e r e e e r e e r e r e 8 5 < > 8 m P d 3 = > 5 8 e r                 ",
"                          ].]._.G.4.A r e e r r r e e r e r r e e e e r e r r e 8 5 > - > d 1.y._ 9 - - > 5 e e                 ",
"                        ].].].].].C.' G C V l g r e r e r r e e e e r e r e r r 5 3 > % > v w.G.w.P u 3 > < 5 8                 ",
"                ].].].].].].].].].E.v.8.6.#.Q c r e e e e r e e r e e r e e r e 8 1 > = > k *.B.M.r._ i > = > >                 ",
"                ].].].].].].].].].'._.E.L.l.$.S r e e e e e e e e e r e r r r r 8 3 > = > y @.z.Y.U.y.P 4 2 3 4                 ",
"              ].].].].].].].].].].].].].R.N.;.S e 0 e e 6 6 e e r e e r r e r e 7 3 > = > y | z.J.W.F.3.^ I Y Y                 ",
"          ].].].].].].].].].].].].].]._.T.c.;.S e e e 6 5 1 1 e r r r e e r r r 7 2 > - > k | z.N.N.M.M.C.C.C.C.                ",
"          ].].].].].].].]././.~.).).].).R.B.u.W m n c f 5 > 1 0 e r e e r e r r 8 1 > = , p ! >.<.,.u.h.C.C.C.C.                ",
"          ].].].].].].]./.T.J.L.J.R.).{.).R.I.t.5.-.X.K w > < 6 r r r e e r r e 8 1 > = > 7 c K Q R R E Y I I P                 ",
"          ].].].].].]._.T.m.z.j.l.B.R.].].].).^.~.F.l.=.c 3 5 e e r e e r r r e 8 1 > - > 2 q a g a u 0 3 4 7 4                 ",
"        ].].].{.Q.R.Q.R.x.:.+.+.+.0.G.].].].]._.~.R.Y.s.} B h u r e e e e e q 6 4 > - > > < 5 0 e e 6 > - 4 d m                 ",
"      ].{.].].Q.J.B.B.m.:.Q b l V ` C.].].]./.Y.L.T.Q.H.p.=.L j e e e e e e 6 1 > > > - > < 4 e e e 7 , < v 1.y.                ",
"      /./.E.D.h.a.i.j.,.{ l u u n ' v./._.(.H.s.i.x.R.Q.Y.l.| l e p l j a q 5 > - > > - > 4 p z z r q 0 p / C.].                ",
"      Y.x.q...` ! Q [ K c 0 e M %.t.I.J.Y.Y.p.} L =.M.R.~.H. .p 0 V [ R l e 3 > - > > = = 9 Y %.U g p V [ e.U.].                ",
"      z.u.R z a g j j f 0 1 9 _ C.P.B.z.c.z.=.c t D u.V./.E.&.s w L :.| V e 1 > - - > > > z 4.C.%.n x { <.M.~.].                ",
"      $.{ V e 0 e q e 0 1 > 8 Y q.h.9.#.$.+.K q 2 h { u.L.P.r.W J ! | Q l q 5 > : : > u v ' b.R.f. .W O.:.d.L.Q.                ",
"      V b g e e e e e e 6 1 3 s G G D D D D j 7 > 8 B ! u.B.I.f.3.Y c p e e 5 ; = = 4 N 4.n.M.V.L.v.q.` R X.d.V.                ",
"      r r r e e e r r e 6 < < 6 r r r e u e 0 < > 5 0 V | u.M.A.r.N 3 2 0 q 6 > > ; 4 Y y.F.g.a.g.A.r.U s S ;.<.                ",
"      e e e e e r e r e 6 > > 5 q e e e e e 6 < > 1 0 j D ! O...Y i > > 6 0 8 6 5 3 e P ....~ K E ` Y s 8 y Z S k 3             ",
"      e e r e r r e r e 6 1 > 5 e r e r r e 0 1 > 4 0 p g j a e 4 2 > 3 0 u r e 0 e e a z j e 8 8 8 4 4 < 2 4 4 2 > >           ",
"      r e e r e r r r e 6 > > 5 e r u e r e 0 5 3 6 e e r 0 5 > - > 3 u n A z r e e e e e 8 1 > > - = - > - = - > : >           ",
"      r r e e r e u r e 5 > > 5 e r r e p e e 0 8 0 e e e e 5 ; - > e G 1.5.Y a 0 r r e e e 6 5 1 > = > > - - - - > >           ",
"      e e e r e e e e e 0 6 7 0 q e r e e e e e e e r e e e 6 1 2 3 u ^ C.D.1.n u r e r e e e e 5 > > > - > > : > > >           ",
"      5 6 e e r r e 5 5 a P P d 8 6 e e r r r r r r e r r e 0 5 3 < 8 Y v.).C.%.G z e e e r r e e 5 1 > > > > > > > >           ",
"      < 3 6 e r r 0 3 4 m 4.r.P 7 3 8 r r e e r e r r e e r e e 6 < 3 N v.{.{.D.5.m e e r e r r e e 8 3 > : - > > - >           ",
"      > 2 4 0 0 0 q u d ] D.Z.^ 4 : 5 q e r e r r e e r e e e e r u d _ C.'.]./.f.O.V g r e e e e e 5 1 > : > > = = %           ",
"      > > 2 3 2 3 p P 3.Z.'.D.Y 3 = > 3 8 e r r e r e e e e e e z Y 1.v.E.]./.J.x.u.| D g r e e 8 6 1 < > > > = $ o             ",
"      : > > > : > i ' Z.'.].C./ t : > 2 4 e r u r e r e e r e e n 2.G.{.{./.F.c.k.k.>.Q j e e e 6 > > > - > > = X               ",
"      # $ = : = - 9 U q.C.R.I.*.H y 2 > > 5 0 q e r e r r e 0 e n 5.P.).W.L.p.+.+.+.| S e 6 0 e 6 > > > > = $ +                 ",
"        X $ > - > 5 p G  .s.c.l.:.L y > ; < 5 0 e r r e e e e e b o.c.L.B.k.o.S b c x e 5 3 8 e 6 1 > > = $ X                   ",
"          @ = = = = < 0 S #.,.i.>.Q y > = > 2 0 e r e r r r p l D | >.i.i.$.F r 0 0 0 3 > < 6 8 5 > > = = o                     ",
"            X o X X o * w S F K S k 7 > = > 3 6 r r r e e a Z [ X.{ Q Q Q F j 5 < 1 3 > > < 1 3 3 > > $ o                       ",
"                        * e r w 3 > > > = > < 8 e r e e q a K ;.>.Q j p a u 7 < > > > ; > > > > > = = X                         ",
"                          * , * @ @ $ $ $ % = 3 5 8 8 6 6 e B ! Q B 8 5 6 5 1 > = % $ $ $ $ $ $ $ $ +                           ",
"                                            + = < 3 1 3 > 3 q p y 0 < < > 1 > > = o                                             ",
"                                              $ = - = = = = = = = = = = = = : = #                                               ",
"                                              . o o o o O o o X X o o o o o O o .                                               ",
"                                                                                                                                ",
"                                                                                                                                "
};
